<svg width="19" height="16" viewBox="0 0 19 16" fill="none" xmlns="http://www.w3.org/2000/svg">
<path d="M17.5194 0.88129L16.7835 0.145348C16.5755 -0.0626432 16.1915 -0.0306342 15.9515 0.257311L13.3913 2.80128C12.2392 2.30533 10.9754 2.06533 9.64731 2.06533C5.69519 2.08127 2.27141 4.38524 0.62329 7.69745C0.527263 7.90544 0.527263 8.16137 0.62329 8.33736C1.39122 9.90538 2.54329 11.2014 3.9833 12.1774L1.8873 14.3053C1.6473 14.5453 1.61529 14.9293 1.77534 15.1373L2.51128 15.8733C2.71928 16.0812 3.10326 16.0492 3.34326 15.7613L17.3912 1.7134C17.6952 1.47354 17.7272 1.08958 17.5192 0.881565L17.5194 0.88129ZM10.4953 5.71318C10.2233 5.64916 9.93534 5.5692 9.66332 5.5692C8.30327 5.5692 7.21538 6.65723 7.21538 8.01714C7.21538 8.28914 7.2794 8.57709 7.35935 8.84911L6.28724 9.90515C5.96728 9.34519 5.7913 8.72109 5.7913 8.01717C5.7913 5.88919 7.50332 4.17717 9.6313 4.17717C10.3354 4.17717 10.9593 4.35315 11.5193 4.67311L10.4953 5.71318Z" fill="#666666" fill-opacity="0.8"/>
<path d="M18.6714 7.69739C18.1114 6.57735 17.3753 5.56941 16.4634 4.75338L13.4874 7.69739V8.01735C13.4874 10.1453 11.7754 11.8573 9.64739 11.8573H9.32744L7.43945 13.7453C8.14351 13.8893 8.87946 13.9853 9.59946 13.9853C13.5516 13.9853 16.9754 11.6814 18.6235 8.35321C18.7675 8.12914 18.7675 7.90523 18.6714 7.69722L18.6714 7.69739Z" fill="#666666" fill-opacity="0.8"/>
</svg>